<?xml version="1.0" encoding="utf-8"?>
<!-- Generator: Adobe Illustrator 14.0.0, SVG Export Plug-In . SVG Version: 6.00 Build 43363)  -->
<!DOCTYPE svg PUBLIC "-//W3C//DTD SVG 1.1//EN" "http://www.w3.org/Graphics/SVG/1.1/DTD/svg11.dtd">
<svg version="1.1" id="Layer_1" xmlns="http://www.w3.org/2000/svg" xmlns:xlink="http://www.w3.org/1999/xlink" x="0px" y="0px"
	 width="850.39px" height="810.71px" viewBox="0 0 850.39 810.71" enable-background="new 0 0 850.39 810.71" xml:space="preserve">
<g>
	<g>
		<path fill="#BF8B52" d="M11.013,589.801v-3.032h9.328v-63.958h-9.328v-3.033h28.584v3.033h-9.234v29.171h35.839v-29.171h-9.327
			v-3.033h28.591v3.033H76.24v63.958h6.187c0.402,0,0.773,0.031,1.161,0.108c1.26,0.24,1.878,1.207,1.878,2.924H56.875v-3.032h9.327
			v-31.399H30.363v31.399h6.211c0.378,0,0.757,0.031,1.159,0.108c1.245,0.24,1.864,1.207,1.864,2.924H11.013z"/>
		<path fill="#BF8B52" d="M182.441,525.492c8.956,6.691,13.426,16.451,13.426,29.289c0,10.974-3.688,19.931-11.09,26.852
			c-6.605,6.22-14.509,9.336-23.681,9.336c-8.183,0-15.42-2.49-21.716-7.479c-8.632-6.845-12.948-16.565-12.948-29.164
			c0-10.896,3.65-19.729,10.968-26.505c6.681-6.133,14.708-9.218,24.044-9.218C169.372,518.603,176.378,520.899,182.441,525.492z
			 M170.074,585.95c9.413-4.131,14.131-14.674,14.131-31.625c-0.086-21.478-7.796-32.289-23.109-32.443
			c-2.181,0-4.253,0.225-6.194,0.696c-11.207,2.954-16.806,13.688-16.806,32.203c0,5.607,0.541,10.548,1.64,14.824
			c3.179,12.074,10.425,18.091,21.71,18.091C164.546,587.696,167.43,587.117,170.074,585.95z"/>
		<path fill="#BF8B52" d="M249.323,589.801v-3.032h11.083v-63.958h-6.302c-5.995,0.464-10.225,4.509-12.715,12.141l-1.878,7.812
			h-3.265l0.588-22.985h57.664l0.578,22.985h-3.279l-1.856-7.812c-0.093-0.161-0.139-0.402-0.139-0.711
			c-2.088-7.617-6.295-11.43-12.591-11.43h-6.775v63.958h7.952c0.385,0,0.772,0.031,1.159,0.108c1.253,0.24,1.873,1.207,1.873,2.924
			H249.323z"/>
		<path fill="#BF8B52" d="M385.749,540.783l-1.632-5.476c-0.086-0.325-0.193-0.711-0.356-1.176
			c-2.413-7.548-6.412-11.321-12.011-11.321h-18.685v29.171h24.052v3.388h-24.052v31.399h18.685c1.315,0,2.56-0.201,3.736-0.587
			c3.805-1.323,6.688-5.291,8.63-11.911l1.632-5.475h2.334l-0.571,21.005h-53.819v-3.032h9.335v-63.958h-9.335v-3.033h53.819
			l0.571,21.006H385.749z"/>
		<path fill="#BF8B52" d="M428.471,589.801v-3.032h9.327v-63.958h-9.327v-3.033h29.163v3.033h-9.791v63.958h15.979
			c0.851,0,1.749-0.077,2.691-0.231c4.348-1.022,7.472-5.097,9.335-12.267l1.973-7.811h2.344l-0.596,23.341H428.471z"/>
		<path fill="#515A3B" d="M599.891,590.38c-1.223,0-2.235-0.238-3.016-0.688c-1.238-0.712-2.738-3.355-4.433-7.941l-22.188-58.939
			h-6.983v-3.033h26.363v3.033h-9.334l21.13,55.08l19.488-55.08h-9.35v-3.033h19.604v3.033h-5.814l-24.045,67.569H599.891z"/>
		<path fill="#515A3B" d="M707.399,589.801v-3.032h7.563l-8.731-22.645H681.84l-8.755,22.645h5.723c0.386,0,0.757,0.031,1.144,0.108
			c1.269,0.24,1.889,1.207,1.889,2.924h-20.782v-3.032h7.354l26.142-66.991h4.323l26.735,66.991h3.951
			c0.388,0,0.782,0.031,1.169,0.108c1.245,0.24,1.863,1.207,1.863,2.924H707.399z M693.981,532.492l-10.874,28.252h21.832
			L693.981,532.492z"/>
		<path fill="#515A3B" d="M815.472,519.777h23.904v3.033h-9.334v66.402l-5.374,1.167l-45.838-57.655v54.044h6.866
			c0.395,0,0.789,0.031,1.175,0.108c1.247,0.24,1.865,1.207,1.865,2.924h-23.93v-3.032h9.352v-63.958h-9.352v-3.033h16.227
			l44.346,55.313v-52.28h-9.907V519.777z"/>
	</g>
	<g>
		<g>
			<g>
				<g>
					<path fill="#515A3B" d="M111.167,782.899c-10.999,10.796-26.503,16.193-46.551,16.193c-17.092,0-32.351-4.446-45.769-13.339
						c0,3.672-0.178,6.208-0.533,7.594c-0.681,2.451-3.125,3.657-7.302,3.657v-54.137h7.834
						c2.963,32.266,17.78,48.561,44.461,48.917c6.807,0,12.986-1.23,18.578-3.666c11.833-5.406,17.765-14.208,17.765-26.411
						c0-4.717-1.122-9.08-3.403-13.086c-4.185-7.146-14.115-14.199-29.814-21.176c-16.897-7.331-26.836-11.77-29.806-13.333
						c-16.388-9.248-24.578-21.19-24.578-35.838c0-9.76,3.488-18.299,10.457-25.614c10.455-10.472,25.104-15.699,43.927-15.699
						c15.515,0,29.466,3.394,41.849,10.201c0-2.096,0.178-3.752,0.534-4.974c0.68-2.613,3.14-3.912,7.316-3.912v45.745h-7.85
						c0.178-9.753-2.266-18.027-7.324-24.835c-7.665-9.938-18.825-14.91-33.472-14.91c-5.925,0-11.323,0.967-16.203,2.886
						c-11.331,4.522-17.007,12.637-17.007,24.315c0,4.369,1.045,8.451,3.148,12.303c3.999,6.962,13.759,13.766,29.289,20.388
						c17.076,7.493,27.285,12.126,30.595,13.858c16.72,9.419,25.088,21.888,25.088,37.401
						C122.396,766.062,118.66,775.211,111.167,782.899z"/>
				</g>
			</g>
			<g>
				<g>
					<path fill="#515A3B" d="M266.083,796.487v-6.807h17.015l-19.636-50.733h-54.64l-19.637,50.733h12.832
						c0.874,0,1.748,0.095,2.606,0.271c2.798,0.511,4.199,2.691,4.199,6.535h-46.55v-6.807h16.473l58.569-150.104h9.689
						l59.884,150.104h8.885c0.874,0,1.748,0.095,2.614,0.271c2.785,0.511,4.177,2.691,4.177,6.535H266.083z M236.021,668.073
						l-24.331,63.288h48.901L236.021,668.073z"/>
				</g>
			</g>
			<g>
				<g>
					<path fill="#515A3B" d="M453.157,796.487v-6.807h17.006l-19.605-50.733h-54.662l-19.605,50.733h12.799
						c0.882,0,1.749,0.095,2.629,0.271c2.776,0.511,4.176,2.691,4.176,6.535h-46.55v-6.807h16.48l58.576-150.104h9.668
						l59.89,150.104h8.895c0.873,0,1.748,0.095,2.622,0.271c2.784,0.511,4.184,2.691,4.184,6.535H453.157z M423.087,668.073
						l-24.315,63.288h48.908L423.087,668.073z"/>
				</g>
			</g>
			<g>
				<g>
					<path fill="#515A3B" d="M542.97,796.487v-5.243L646,646.366h-57.007c-8.9,0.185-15.954,5.854-21.197,16.999l-10.186,23.55
						h-5.236l2.366-47.339h116.364v5.491L570.943,789.681h64.601c13.426-0.162,21.973-7.585,25.63-22.228l5.491-25.103h5.746
						l-0.526,54.137H542.97z"/>
				</g>
			</g>
			<g>
				<g>
					<path fill="#515A3B" d="M834.134,686.644l-3.649-12.282c-0.188-0.695-0.442-1.576-0.807-2.63
						c-5.382-16.897-14.368-25.365-26.92-25.365h-41.84v65.382h53.865v7.594h-53.865v70.339h41.84c2.961,0,5.746-0.44,8.367-1.307
						c8.554-2.954,14.988-11.848,19.359-26.666l3.649-12.29h5.242l-1.307,47.069H717.491v-6.807h20.921V646.366h-20.921v-6.79
						h120.578l1.307,47.067H834.134z"/>
				</g>
			</g>
		</g>
	</g>
	<g>
		<g>
			<g>
				<g>
					<g>
						<g>
							<path fill-rule="evenodd" clip-rule="evenodd" fill="#BF8B52" d="M430.675,104.826c-1.98,1.523-3.844,4.037-5.421,5.074
								c-1.432,0.92-2.925,1.778-4.425,2.614c-2.382,1.361-4.779,2.722-6.914,4.47c-4.254,3.465-4.872,8.368-4.641,11.879
								c0.092,1.036-0.742,1.624-2.204,2.722c-6.357,5.259-13.063,9.528-20.982,13.41c-20.665,10.132-42.513,17.324-61.623,30.549
								c-5.569,3.836-11.663,8.384-14.849,14.509c-3.619,6.906-0.975,14.524,3.224,20.557c3.357,4.841,7.302,8.368,11.408,10.201
								c4.023,1.796,7.604,2.223,11.898,2.606c2.92,0.26,6.323,1.366,3.492,4.578c-0.75,0.881-1.438,1.81-1.996,2.8
								c-1.176,2.104-1.841,4.331-1.979,6.604c-0.156,1.949-0.218,3.883-0.264,5.824c-0.062,2.916-0.146,5.839-0.549,8.747
								c-0.208,1.547-0.517,2.815-0.943,4.022c-0.44,1.624-0.75,2.722-1.631,3.588c-0.974,0.99-2.29,1.129-3.242,1.238
								c-4.307,0.649-6.798,1.732-7.942,3.294c-0.572,0.766-1.052,1.779-1.253,2.583c-0.37,1.546,0.712,3.465,1.965,5.661
								c0.796,1.376,1.6,2.822,2.165,4.338c0.858,2.297,1.563,5.591,2.297,9.057c1.198,5.646,2.545,12.049,4.818,14.432
								c1.145,1.175,3.449,1.268,5.475,1.337c4.339,0.248,6.481,0.24,9.211,0.116c1.554-0.038,3.07-0.123,4.572-0.216
								c2.637-0.093,3.943-0.125,5.003-0.836c0.827-0.534,1.245-1.391,1.415-2.776l0.1-1.43c-0.666-2.653-2.986-3.233-5.468-3.851
								c-1.415-0.356-2.877-0.728-4.13-1.362c-0.697-0.371-1.175-1.121-1.546-1.716c-1.694-2.359-1.949-4.439-2.074-6.226
								c-0.138-2.66,0.379-4.98,1.594-7.107c2.629-4.439,6.913-7.339,10.378-9.374c1.918-1.113,3.844-2.126,5.808-3.163
								c8.507-4.509,19.76-10.395,31.486-8.801c4.585,0.642,8.653,3.148,12.605,5.561c2.769,1.686,5.6,3.434,8.599,4.579
								c2.77,1.037,5.569,1.802,8.416,2.273c4.346,0.735,8.669,0.835,12.305,0.835l11.77-0.108l1.726,0.015
								c1.238,0.055,3.077,0.132,3.976,1.81c0.255,0.51,0.455,1.114,0.665,1.717c2.227,5.7,3.147,10.919,4.044,15.978l0.759,4.447
								c0.301,1.995,0.626,4.06,1.724,5.421c1.175,1.454,3.172,2.235,4.942,2.846c3.473,1.199,7.401,1.81,11.655,1.81l1.979-0.046
								c2.437-0.093,4.896-0.364,7.285-0.696c1.934-0.27,3.287-0.92,3.379-1.616c0.233-1.276,0-2.592-0.277-3.999
								c-0.202-1.16-0.387-2.32-0.387-3.48c0-0.325-0.023-1.315-3.859-1.315l-1.957,0.085c-1.933,0-2.737-0.936-3.077-1.709
								c-0.395-0.897-0.348-1.825-0.325-2.583c-0.163-2.861-0.163-5.011-0.163-7.138c0-2.9,0-6.512,0.944-9.869
								c0.526-1.864,1.197-3.704,2.072-5.452c2.592-5.383,6.55-10.511,12.413-16.11l2.962-2.745c2.073-1.871,4.115-3.744,6.001-5.8
								c2.064-2.282,4.942-5.847,6.876-9.837c0.456-0.936,0.711-1.942,0.959-2.955c0.324-1.213,0.673-2.49,1.313-3.72
								c0.643-1.199,1.447-2.73,3.032-3.132l1.432-0.154l1.261-0.016c1.175-0.085,2.319-0.154,3.473-0.201
								c4.393-0.232,8.065-1.051,11.469-2.552c3.52-1.531,8.623-4.532,4.756-8.406c-1.26-1.261-0.387-3.565-0.363-3.674
								c0.549-1.314,1.517-2.474,2.391-3.511c2.412-3.017,2.984-5.298,2.76-8.461c-0.324-3.898-2.374-5.831-4.321-6.458
								c-0.76-0.24-1.564-0.41-2.345-0.595l-1.608-0.294c-0.944-0.117-2.143-0.271-2.993-1.129l-0.364-0.364l-0.439-1.585
								c-0.232-0.866-0.41-1.361-0.619-1.879c-0.689-1.617-1.864-3.265-3.356-4.726c-0.688-0.649-1.399-1.199-2.166-1.624
								c-0.526-0.31-1.122-0.642-1.701-0.758c-0.479-0.092-0.959-0.17-1.47-0.17h-2.297l-2.181,0.054
								c-0.782,0-1.432-0.07-2.027-0.216c-0.989-0.255-1.84-0.704-2.736-1.431c-0.758-0.603-1.54-1.222-2.228-1.934l-0.804-1.052
								l-1.084-1.252l-3.743-3.698c-0.642-0.634-1.337-1.206-2.072-1.701c-0.711-0.456-1.492-0.851-2.297-1.167
								c-0.852-0.333-1.633-0.519-2.436-0.55c-1.308-0.038-2.204,0.078-3.032,0.263c-1.702,0.372-3.241,2.397-4.741,4.347
								c-1.47,1.957-3.032,3.968-5.058,4.787c-2.963,1.215-5.793,1.323-8.438,1.323l-1.764-0.016c-1.632,0-3.356,0.046-5.035,0.448
								c-8.901,2.181-14.555,6.977-20.51,12.591c-1.902,1.779-3.696,3.929-5.606,6.195c-3.031,3.62-6.458,7.725-11.052,11.268
								c-6.93,5.336-16.148,6.018-23.387,6.018c-3.789,0-7.687-0.217-11.532-0.434c-7.833-0.433-15.25-0.557-22.621,0.34
								c-4.949,0.611-9.86,1.516-14.771,2.444l-5.616,1.021c-2.119,0.371-4.208,0.727-6.31,1.044
								c-3.82,0.58-7.68,1.029-11.532,1.292l-1.693,0.062c-3.412,0-6.319-0.742-8.833-2.289c-2.977-1.755-5.181-5.089-6.07-9.142
								c-1.107-5.004,1.09-9.992,2.467-12.528c6.498-11.647,27.603-20.502,44.563-27.61c4.154-1.748,8.043-3.364,11.276-4.857
								c4.748-2.212,9.667-4.315,14.523-6.404c17.045-7.308,33.164-14.23,40.881-24.16c1.292-1.655,2.305-3.426,3.018-5.213
								c1.516-3.697,1.978-7.254,1.376-10.897c-0.386-2.854-0.642-4.756-1.81-5.731C434.07,102.993,432.306,103.565,430.675,104.826
								z M509.266,187.811c0.162-0.89,0.232-1.794,0.303-2.707c0.114-1.129,0.207-2.258,0.417-3.388
								c0.596-3.371,2.821-3.944,5.259-3.727l1.771,0.107c0.688,0,1.4,0,2.073,0.125c3.031,0.58,3.009,2.691,2.938,3.333
								c-0.232,1.91-1.956,2.947-3.355,3.782c-1.772,1.075-1.888,1.322-1.749,1.725c0.396,0.974,0.967,1.461,1.865,1.585
								c2.296,0.155,3.766-0.356,5.381-0.812c0.982-0.271,1.972-0.549,2.917-0.711c1.725-0.333,3.495-0.309,5.081,0.139
								c2.158,0.58,4.369,2.567,4.207,5.082c-0.209,2.992-0.851,5.259-1.957,6.729c-0.826,1.067-2.135,1.067-2.598,1.067
								l-1.215-0.069c-2.738-0.171-5.059-1.153-6.76-1.988c-0.619-0.286-0.92-0.395-1.222-0.395l-1.926,0.734
								c-1.06,0.773-1.748,2.46-1.934,4.525c-0.069,0.874,0.046,1.732,0.348,2.544c0.295,0.89,0.665,1.895,1.007,2.119l1.407-0.301
								c1.028-0.24,2.11-0.473,3.192-0.611c0.875-0.139,1.796-0.231,2.716-0.263c1.833-0.41,3.418,0.448,4.138,1.353l0.479,0.572
								v1.88c-0.388,1.562-1.818,3.302-2.939,4.13c-1.655,1.191-3.727,1.338-5.382,1.462c-0.875,0.054-1.75,0.084-2.622,0.084
								c-1.122,0-2.251-0.047-3.357-0.217c-1.398-0.216-2.62-0.603-3.603-1.144c-0.79-0.448-1.408-0.928-1.889-1.47
								c-1.29-1.392-1.793-3.094-2.228-4.601c-0.672-2.189-0.989-3.705-1.197-5.251C508.214,198.73,508.353,193.688,509.266,187.811
								z M449.592,200.68c-0.094-2.197-0.069-4.695,1.47-6.798c1.058-1.416,2.412-2.397,3.75-3.333l3.403-2.622
								c6.017-4.802,12.823-10.247,21.376-10.247c3.031,0.124,4.733,1.129,6.232,2.011c0.938,0.541,1.787,1.052,2.709,1.345
								c2.165,0.125,3.355-0.71,3.819-1.314c0.619-0.881,0.734-2.29,0.851-3.782c0.14-1.717,0.249-3.488,1.262-4.896
								c2.118-2.923,4.114-1.872,6.14-0.402c1.771,1.314,2.738,3.256,2.669,5.49c-0.07,2.46-0.781,4.749-2.306,7.41
								c-1.33,2.29-2.111,3.666-2.32,5.12c-0.341,2.227-0.093,4.732,0.781,7.857c0.734,2.676,1.749,5.243,2.784,7.796
								c0.967,2.414,1.911,4.811,2.646,7.285c0.78,2.645,1.075,4.834,0.943,6.883c-0.023,0.881-0.139,2.769-1.361,3.945
								c-0.619,0.634-1.678,1.004-2.822,1.004l-1.957-0.494c-4.23-2.63-5.196-8.338-5.886-12.483
								c-0.525-3.341-1.035-6.079-1.585-8.817c-0.418-2.126-0.572-3.132-0.827-4.114l-0.665-1.067c-1.362,0-3.449,1.345-4.37,2.498
								c-0.735,0.89-0.759,2.359-0.759,3.781c-0.046,3.086,0.093,5.862,0.364,8.647c0.255,2.831,1.315,5.583,3.402,8.909
								c0.759,1.222,1.129,1.887,1.608,2.505l1.085,1.222c0.393,0.479,0.827,0.952,1.221,1.454c1.33,1.701,4.045,5.244,2.414,8.623
								c-0.559,1.184-1.587,1.841-2.832,1.841c-4.663,0-12.273-10.433-12.343-10.541c-0.348-0.496-0.782-0.96-1.199-1.439
								c-1.051-1.175-2.227-2.513-2.591-4.253c-0.324-1.547,0.132-2.862,0.526-4.014c0.967-3.689,1.539-6.419,1.214-9.11
								c-0.131-1.076-0.316-2.298-0.874-3.009c-1.584-0.587-2.391-0.185-3.193,0.464c-3.837,3.271-5.955,8.562-5.794,14.524
								c0.279,2.181,0.534,3.239,0.897,4.199c0.372,0.982,0.944,1.995,1.726,3.101c0.735,1.052,1.563,2.042,2.412,3.032
								c0.851,0.989,1.772,1.94,2.691,2.877c0.921,0.912,1.911,1.817,2.901,2.722c0.959,0.898,1.855,1.81,2.705,2.8
								c0.759,0.897,1.455,1.81,2.051,2.776c0.572,0.843,1.191,1.856,1.562,2.994c0.255,0.742,0.349,1.654,0.255,2.451
								c-0.139,1.091-0.625,2.258-1.499,3.457c-0.527,0.72-1.378,1.115-2.391,1.115c-2.458,0-5.815-2.305-9.01-6.142l-2.042-2.444
								c-2.946-3.496-5.08-6.017-7.223-10.301c-1.307-2.676-2.274-5.708-2.916-9.28l-0.781-4.927
								c-0.231-2.281,0.022-3.991-2.552-2.405c-0.875,0.542-1.887,1.153-3.147,1.424c-4.208,0.34-4.231-2.862-4.37-4.3
								c-0.209-1.764-0.255-2.994-0.277-4.223l0.022-2.784C449.638,203.355,449.661,202.01,449.592,200.68z M345.548,242.938
								c0.805-4.61,1.624-9.389,3.45-13.952l0.758-2.019c0.866-2.313,1.748-4.726,3.294-6.813c2.723-3.712,7.456-5.336,10.975-6.056
								c2.544-0.518,5.149-0.812,7.741-0.92l2.676-0.047c1.964,0,3.943,0.07,5.908,0.14c3.064,0.154,6.095,0.387,9.143,0.665
								l9.358,0.774c3.589,0.309,6.435,0.526,9.272,0.603c2.994,0.07,5.994,0.139,8.988,0.016c2.738-0.139,5.406-0.618,8.098-1.09
								c3.007-0.565,5.188-1.292,7.006-2.375c1.493-0.881,3.101-1.578,4.686-2.258c5.384-2.32,5.7,2.351,5.771,6.627
								c0.023,0.905,0.023,1.81,0.092,2.714c0.186,2.63,1.129,4.146,3.89,3.047c1.1-0.448,2.345-0.958,3.629-0.958l1.7,0.34
								c1.818,0.805,1.98,2.645,2.096,3.751c0.179,1.64,0.551,2.962,1.122,4.416c1.771,4.517,4.602,8.624,9.126,13.349l2.482,2.513
								c2.329,2.36,4.625,4.718,6.806,7.201c2.12,2.413,1.361,4.957,0.734,7.006c-0.177,0.603-0.362,1.207-0.479,1.81
								c-0.323,1.841-0.571,3.698-0.78,5.554c-0.324,3.434-0.511,6.898-0.665,10.332l-0.047,2.707c0,2.312-0.022,5.167-0.162,6.141
								c-0.093,0.603-0.371,2.374-2.459,2.513c-0.851,0-2.506-0.101-3.147-1.4c-0.418-0.819-1.014-4.083-2.6-13.418
								c-0.486-3.008-0.966-5.831-1.314-7.571c-0.41-2.32-1.052-5.275-1.948-7.456c-0.65-1.57-1.633-3.959-2.738-4.517
								c-1.353-0.054-2.575,0.673-3.542,1.315c-2.041,1.314-3.426,1.787-5.151,2.211c-0.958,0.231-1.926,0.402-2.938,0.472
								c-1.865,0.194-3.836,0.093-5.77-0.007l-4.88-0.233c-1.996-0.076-3.99-0.154-5.971-0.316
								c-3.495-0.264-6.961-0.797-10.395-1.408c-5.119-0.904-11.677-2.413-16.998-5.955c-2.043-1.361-3.343-2.792-4.502-4.061
								c-2.468-2.769-4.006-4.083-10.704-2.784c-14.718,2.876-29.017,10.765-40.185,20.649c-2.041,1.794-4.368,3.225-6.295,5.127
								c-2.429,2.405-2.692,3.968-2.328,7.323l0.209,1.749c0.262,2.258,0.571,4.811-0.209,7.177
								c-0.441,1.299-1.748,3.202-3.627,3.209h-0.488l-1.106-0.518c-0.989-0.728-1.423-1.996-1.778-3.001
								c-1.33-3.503-2.267-6.821-2.923-10.317c-0.248-1.47-0.48-2.955-0.596-4.424c-0.255-2.096-0.472-4.006,1.571-5.437
								c1.392-0.951,2.891-1.917,4.64-2.459c2.019-0.619,3.604-1.106,4.98-2.421c2.683-2.583,4.647-7.038,5.8-13.256
								L345.548,242.938z"/>
						</g>
					</g>
				</g>
			</g>
			<g>
				<g>
					<g>
						<g>
							<path fill="#BF8B52" d="M425.208,401.001c-75.963,0-137.771-58.467-137.771-130.322v-109.31
								c0-71.855,61.809-130.324,137.771-130.324c75.946,0,137.738,58.468,137.738,130.324v109.31
								C562.945,342.534,501.153,401.001,425.208,401.001L425.208,401.001z M425.208,37.17
								c-72.591,0-131.653,55.715-131.653,124.199v109.31c0,68.483,59.063,124.198,131.653,124.198
								c72.566,0,131.597-55.715,131.597-124.198v-109.31C556.805,92.885,497.773,37.17,425.208,37.17L425.208,37.17z"/>
						</g>
					</g>
				</g>
			</g>
		</g>
		<g>
			<g>
				<g>
					<g>
						<path fill="#515A3B" d="M425.208,420.421c-85.352,0-154.801-64.6-154.801-144.003V155.623
							c0-79.396,69.449-144.005,154.801-144.005c85.335,0,154.769,64.608,154.769,144.005v120.795
							C579.977,355.821,510.543,420.421,425.208,420.421L425.208,420.421z M425.208,18.393
							c-81.563,0-147.926,61.562-147.926,137.229v120.795c0,75.668,66.363,137.237,147.926,137.237
							c81.536,0,147.871-61.569,147.871-137.237V155.623C573.078,79.955,506.743,18.393,425.208,18.393L425.208,18.393z"/>
					</g>
				</g>
			</g>
		</g>
	</g>
</g>
<rect fill="none" width="850.39" height="810.71"/>
</svg>
