<?xml version="1.0" encoding="utf-8"?>
<!-- Generator: Adobe Illustrator 14.0.0, SVG Export Plug-In . SVG Version: 6.00 Build 43363)  -->
<!DOCTYPE svg PUBLIC "-//W3C//DTD SVG 1.1//EN" "http://www.w3.org/Graphics/SVG/1.1/DTD/svg11.dtd">
<svg version="1.1" id="Layer_1" xmlns="http://www.w3.org/2000/svg" xmlns:xlink="http://www.w3.org/1999/xlink" x="0px" y="0px"
	 width="512px" height="512px" viewBox="0 0 512 512" enable-background="new 0 0 512 512" xml:space="preserve">
<rect width="512" height="512" rx="104" fill="#0f172a"/>
<g>
	<g>
		<g>
			<g>
				<g>
					<g>
						<g>
							<g>
								<path fill-rule="evenodd" clip-rule="evenodd" fill="#BF8B52" d="M261.713,140.227c-2.066,1.59-4.007,4.206-5.65,5.283
									c-1.49,0.961-3.047,1.853-4.606,2.725c-2.482,1.415-4.979,2.83-7.199,4.651c-4.428,3.609-5.072,8.716-4.832,12.37
									c0.099,1.084-0.772,1.691-2.293,2.834c-6.618,5.48-13.603,9.921-21.85,13.963c-21.514,10.55-44.258,18.037-64.157,31.809
									c-5.797,3.99-12.143,8.728-15.458,15.105c-3.771,7.187-1.017,15.117,3.354,21.406c3.493,5.037,7.603,8.71,11.877,10.616
									c4.188,1.872,7.918,2.319,12.39,2.715c3.039,0.272,6.582,1.425,3.634,4.771c-0.783,0.911-1.498,1.878-2.081,2.911
									c-1.224,2.194-1.914,4.507-2.061,6.875c-0.158,2.027-0.224,4.046-0.273,6.065c-0.063,3.034-0.148,6.078-0.571,9.107
									c-0.217,1.604-0.537,2.928-0.984,4.188c-0.456,1.684-0.776,2.832-1.693,3.735c-1.014,1.03-2.386,1.177-3.374,1.29
									c-4.486,0.677-7.083,1.802-8.271,3.426c-0.6,0.804-1.097,1.857-1.309,2.691c-0.38,1.612,0.744,3.602,2.052,5.896
									c0.826,1.429,1.667,2.938,2.251,4.514c0.894,2.391,1.625,5.822,2.391,9.432c1.249,5.88,2.648,12.547,5.015,15.021
									c1.195,1.227,3.595,1.327,5.705,1.397c4.519,0.254,6.745,0.248,9.589,0.117c1.621-0.038,3.199-0.127,4.761-0.22
									c2.741-0.101,4.103-0.128,5.208-0.87c0.861-0.558,1.296-1.45,1.472-2.894l0.102-1.493c-0.689-2.756-3.108-3.358-5.69-4.004
									c-1.471-0.37-2.995-0.763-4.301-1.421c-0.725-0.38-1.224-1.161-1.608-1.788c-1.765-2.454-2.028-4.62-2.163-6.478
									c-0.139-2.767,0.397-5.19,1.664-7.407c2.74-4.618,7.196-7.635,10.81-9.751c1.992-1.158,3.999-2.218,6.043-3.295
									c8.855-4.694,20.575-10.82,32.78-9.164c4.778,0.668,9.012,3.277,13.126,5.786c2.882,1.759,5.832,3.575,8.954,4.771
									c2.884,1.076,5.799,1.872,8.763,2.365c4.525,0.768,9.024,0.872,12.802,0.872l12.262-0.115l1.798,0.015
									c1.279,0.057,3.194,0.142,4.145,1.889c0.254,0.53,0.466,1.156,0.692,1.786c2.309,5.933,3.259,11.368,4.201,16.633
									l0.791,4.63c0.314,2.08,0.653,4.229,1.801,5.646c1.21,1.515,3.293,2.329,5.138,2.964c3.623,1.248,7.704,1.883,12.14,1.883
									l2.061-0.048c2.53-0.095,5.104-0.375,7.584-0.726c2.01-0.282,3.42-0.953,3.51-1.678c0.25-1.332,0-2.696-0.282-4.164
									c-0.207-1.215-0.408-2.419-0.408-3.628c0-0.34-0.021-1.365-4.01-1.365l-2.042,0.089c-2.014,0-2.856-0.972-3.198-1.782
									c-0.416-0.938-0.373-1.901-0.34-2.686c-0.17-2.983-0.17-5.223-0.17-7.435c0-3.021,0-6.779,0.979-10.274
									c0.547-1.944,1.243-3.854,2.155-5.676c2.705-5.603,6.827-10.942,12.929-16.777l3.073-2.856
									c2.174-1.947,4.291-3.9,6.253-6.041c2.16-2.37,5.157-6.088,7.165-10.236c0.475-0.979,0.745-2.023,0.993-3.079
									c0.338-1.265,0.705-2.597,1.369-3.871c0.663-1.246,1.51-2.846,3.161-3.263l1.491-0.161l1.313-0.018
									c1.223-0.09,2.413-0.16,3.618-0.21c4.568-0.236,8.397-1.094,11.936-2.655c3.671-1.596,8.982-4.722,4.956-8.754
									c-1.314-1.314-0.4-3.71-0.377-3.825c0.568-1.367,1.575-2.576,2.483-3.658c2.508-3.138,3.11-5.515,2.87-8.803
									c-0.339-4.061-2.47-6.079-4.492-6.727c-0.791-0.249-1.633-0.428-2.446-0.625l-1.676-0.304
									c-0.979-0.119-2.225-0.28-3.109-1.174l-0.377-0.377l-0.465-1.65c-0.24-0.902-0.42-1.418-0.641-1.955
									c-0.729-1.682-1.953-3.402-3.502-4.919c-0.714-0.679-1.452-1.251-2.258-1.694c-0.541-0.324-1.152-0.669-1.759-0.79
									c-0.505-0.099-0.998-0.174-1.535-0.174h-2.398l-2.263,0.054c-0.805,0-1.487-0.075-2.107-0.224
									c-1.03-0.268-1.916-0.735-2.842-1.49c-0.806-0.629-1.62-1.279-2.335-2.019l-0.832-1.094l-1.125-1.299l-3.904-3.849
									c-0.669-0.661-1.394-1.259-2.161-1.773c-0.733-0.478-1.543-0.887-2.389-1.215c-0.886-0.347-1.699-0.545-2.526-0.575
									c-1.369-0.036-2.296,0.084-3.163,0.272c-1.769,0.39-3.383,2.496-4.931,4.529c-1.544,2.04-3.161,4.134-5.273,4.983
									c-3.086,1.268-6.027,1.373-8.78,1.373l-1.844-0.011c-1.694,0-3.487,0.049-5.23,0.468
									c-9.271,2.272-15.161,7.259-21.362,13.11c-1.972,1.847-3.839,4.088-5.843,6.45c-3.149,3.764-6.723,8.041-11.495,11.729
									c-7.217,5.559-16.818,6.265-24.353,6.265c-3.945,0-8.003-0.224-12.007-0.451c-8.152-0.45-15.879-0.579-23.551,0.353
									c-5.154,0.639-10.271,1.58-15.383,2.544l-5.845,1.068c-2.204,0.383-4.38,0.755-6.571,1.084
									c-3.976,0.603-7.993,1.073-12.005,1.343l-1.766,0.07c-3.549,0-6.575-0.777-9.193-2.386c-3.099-1.83-5.396-5.3-6.318-9.519
									c-1.153-5.211,1.131-10.405,2.566-13.046c6.763-12.123,28.738-21.344,46.399-28.747c4.324-1.821,8.373-3.501,11.742-5.052
									c4.942-2.307,10.061-4.499,15.119-6.673c17.747-7.607,34.527-14.813,42.558-25.15c1.342-1.724,2.396-3.568,3.147-5.429
									c1.576-3.849,2.051-7.556,1.431-11.346c-0.399-2.974-0.662-4.951-1.886-5.971
									C265.234,138.321,263.401,138.918,261.713,140.227z M343.527,226.629c0.171-0.928,0.246-1.865,0.32-2.817
									c0.113-1.174,0.212-2.352,0.433-3.531c0.621-3.504,2.937-4.098,5.477-3.876l1.845,0.113c0.706,0,1.454,0,2.155,0.128
									c3.157,0.603,3.143,2.805,3.067,3.471c-0.244,1.986-2.037,3.068-3.501,3.938c-1.845,1.12-1.967,1.375-1.825,1.795
									c0.414,1.015,1.011,1.522,1.939,1.652c2.403,0.16,3.928-0.373,5.612-0.849c1.016-0.281,2.051-0.572,3.029-0.737
									c1.808-0.348,3.651-0.324,5.293,0.145c2.254,0.606,4.55,2.674,4.386,5.291c-0.217,3.117-0.895,5.479-2.051,7.005
									c-0.853,1.113-2.207,1.113-2.697,1.113l-1.257-0.073c-2.864-0.179-5.272-1.2-7.043-2.076
									c-0.644-0.295-0.96-0.402-1.27-0.402l-2.014,0.761c-1.105,0.803-1.82,2.561-2.014,4.714c-0.07,0.906,0.057,1.8,0.361,2.642
									c0.307,0.93,0.692,1.975,1.056,2.212l1.472-0.313c1.063-0.255,2.192-0.498,3.316-0.638c0.914-0.145,1.867-0.243,2.819-0.273
									c1.92-0.423,3.571,0.468,4.313,1.412l0.499,0.592v1.953c-0.396,1.628-1.893,3.442-3.063,4.304
									c-1.717,1.236-3.877,1.393-5.599,1.521c-0.903,0.054-1.82,0.09-2.725,0.09c-1.171,0-2.353-0.052-3.504-0.226
									c-1.449-0.224-2.725-0.626-3.746-1.188c-0.823-0.471-1.464-0.969-1.971-1.532c-1.346-1.451-1.868-3.226-2.32-4.792
									c-0.7-2.282-1.02-3.857-1.241-5.47C342.44,238.001,342.586,232.75,343.527,226.629z M281.398,240.03
									c-0.102-2.287-0.069-4.891,1.535-7.079c1.092-1.473,2.508-2.496,3.9-3.472l3.538-2.729
									c6.265-5.001,13.352-10.667,22.26-10.667c3.16,0.125,4.93,1.175,6.496,2.089c0.97,0.567,1.857,1.094,2.824,1.403
									c2.252,0.129,3.484-0.737,3.97-1.367c0.645-0.916,0.772-2.383,0.886-3.939c0.149-1.786,0.257-3.629,1.312-5.098
									c2.207-3.041,4.282-1.953,6.394-0.416c1.84,1.367,2.856,3.39,2.78,5.716c-0.074,2.557-0.813,4.943-2.402,7.708
									c-1.38,2.391-2.193,3.823-2.41,5.337c-0.362,2.317-0.099,4.925,0.805,8.176c0.771,2.786,1.825,5.464,2.898,8.116
									c1.007,2.515,1.994,5.015,2.752,7.586c0.814,2.754,1.13,5.037,0.984,7.167c-0.024,0.919-0.138,2.886-1.418,4.108
									c-0.643,0.662-1.744,1.045-2.936,1.045l-2.031-0.508c-4.409-2.748-5.416-8.686-6.131-13c-0.541-3.482-1.082-6.33-1.65-9.184
									c-0.434-2.209-0.59-3.258-0.863-4.276l-0.687-1.118c-1.431,0-3.599,1.402-4.554,2.605c-0.767,0.924-0.79,2.455-0.79,3.937
									c-0.048,3.214,0.099,6.103,0.375,9.001c0.269,2.948,1.37,5.813,3.538,9.273c0.796,1.276,1.173,1.973,1.681,2.611
									l1.128,1.271c0.415,0.498,0.862,0.991,1.281,1.518c1.374,1.766,4.201,5.455,2.503,8.974
									c-0.578,1.237-1.652,1.914-2.945,1.914c-4.864,0-12.779-10.859-12.849-10.972c-0.361-0.513-0.813-0.997-1.247-1.495
									c-1.097-1.225-2.319-2.622-2.697-4.434c-0.338-1.606,0.137-2.978,0.547-4.177c1.007-3.838,1.599-6.681,1.261-9.485
									c-0.141-1.121-0.329-2.393-0.914-3.129c-1.646-0.612-2.481-0.197-3.316,0.482c-3.993,3.407-6.201,8.911-6.03,15.12
									c0.286,2.275,0.554,3.373,0.927,4.374c0.39,1.021,0.982,2.075,1.793,3.227c0.766,1.094,1.627,2.129,2.513,3.153
									c0.884,1.036,1.852,2.024,2.808,3.003c0.96,0.949,1.99,1.891,3.021,2.831c0.992,0.937,1.924,1.883,2.809,2.918
									c0.803,0.926,1.515,1.882,2.141,2.888c0.597,0.876,1.241,1.93,1.627,3.115c0.273,0.776,0.362,1.727,0.273,2.556
									c-0.151,1.133-0.659,2.348-1.567,3.595c-0.546,0.758-1.431,1.16-2.484,1.16c-2.573,0-6.059-2.398-9.39-6.392l-2.127-2.547
									c-3.059-3.637-5.293-6.261-7.519-10.723c-1.356-2.784-2.367-5.941-3.029-9.658l-0.829-5.131
									c-0.225-2.382,0.033-4.161-2.648-2.51c-0.907,0.566-1.961,1.203-3.271,1.487c-4.385,0.352-4.418-2.983-4.556-4.479
									c-0.224-1.838-0.268-3.12-0.295-4.396l0.027-2.898C281.442,242.811,281.465,241.418,281.398,240.03z M173.074,284.026
									c0.838-4.798,1.692-9.771,3.592-14.522l0.788-2.108c0.903-2.408,1.821-4.916,3.433-7.09
									c2.833-3.868,7.763-5.554,11.428-6.305c2.649-0.536,5.359-0.845,8.057-0.96l2.788-0.044c2.044,0,4.1,0.07,6.152,0.14
									c3.19,0.164,6.345,0.403,9.518,0.694l9.742,0.802c3.736,0.324,6.703,0.552,9.654,0.632c3.12,0.071,6.242,0.144,9.357,0.017
									c2.853-0.146,5.628-0.649,8.436-1.139c3.129-0.589,5.4-1.343,7.29-2.474c1.549-0.909,3.224-1.638,4.885-2.347
									c5.594-2.417,5.923,2.452,6,6.897c0.022,0.945,0.022,1.888,0.093,2.825c0.193,2.744,1.178,4.323,4.055,3.177
									c1.145-0.471,2.443-1.004,3.771-1.004l1.782,0.36c1.886,0.842,2.057,2.752,2.184,3.908c0.185,1.703,0.564,3.083,1.161,4.594
									c1.837,4.703,4.79,8.98,9.5,13.896l2.592,2.621c2.423,2.461,4.81,4.906,7.078,7.496c2.214,2.508,1.415,5.16,0.775,7.295
									c-0.198,0.628-0.391,1.258-0.508,1.883c-0.334,1.916-0.598,3.85-0.812,5.777c-0.342,3.576-0.534,7.188-0.694,10.761
									l-0.052,2.818c0,2.413-0.023,5.383-0.169,6.396c-0.095,0.63-0.385,2.474-2.551,2.619c-0.885,0-2.611-0.107-3.283-1.459
									c-0.438-0.851-1.059-4.253-2.706-13.974c-0.509-3.128-1.008-6.069-1.369-7.88c-0.419-2.418-1.088-5.492-2.019-7.763
									c-0.679-1.632-1.707-4.122-2.86-4.707c-1.408-0.056-2.678,0.707-3.688,1.376c-2.114,1.363-3.558,1.862-5.369,2.304
									c-0.987,0.236-1.994,0.415-3.048,0.485c-1.957,0.208-3.995,0.098-6.008-0.009l-5.082-0.24
									c-2.076-0.08-4.155-0.16-6.216-0.326c-3.636-0.276-7.246-0.831-10.824-1.467c-5.329-0.941-12.155-2.518-17.695-6.2
									c-2.126-1.412-3.482-2.908-4.688-4.227c-2.568-2.884-4.171-4.254-11.144-2.897c-15.324,2.993-30.212,11.201-41.842,21.496
									c-2.122,1.868-4.547,3.361-6.554,5.336c-2.526,2.507-2.804,4.132-2.426,7.626l0.217,1.822
									c0.276,2.352,0.6,5.006-0.217,7.471c-0.456,1.354-1.816,3.337-3.773,3.342h-0.509l-1.151-0.538
									c-1.028-0.753-1.482-2.079-1.849-3.123c-1.388-3.651-2.357-7.102-3.047-10.746c-0.257-1.53-0.499-3.073-0.619-4.606
									c-0.263-2.179-0.492-4.169,1.632-5.65c1.449-0.997,3.011-2.005,4.835-2.568c2.101-0.646,3.748-1.153,5.185-2.518
									c2.792-2.697,4.839-7.332,6.038-13.804L173.074,284.026z"/>
							</g>
						</g>
					</g>
				</g>
				<g>
					<g>
						<g>
							<g>
								<path fill="#BF8B52" d="M256.018,448.596c-79.095,0-143.444-60.87-143.444-135.685V199.1
									c0-74.811,64.349-135.688,143.444-135.688c79.069,0,143.399,60.877,143.399,135.688v113.812
									C399.417,387.726,335.087,448.596,256.018,448.596L256.018,448.596z M256.018,69.786
									c-75.58,0-137.073,58.01-137.073,129.314v113.812c0,71.303,61.494,129.306,137.073,129.306c75.554,0,137-58.003,137-129.306
									V199.1C393.019,127.796,331.572,69.786,256.018,69.786L256.018,69.786z"/>
							</g>
						</g>
					</g>
				</g>
			</g>
			<g>
				<g>
					<g>
						<g>
							<path fill="#515A3B" d="M256.018,468.814c-88.867,0-161.175-67.257-161.175-149.927V193.115
								c0-82.664,72.308-149.931,161.175-149.931c88.845,0,161.138,67.267,161.138,149.931v125.773
								C417.156,401.558,344.863,468.814,256.018,468.814L256.018,468.814z M256.018,50.24C171.091,50.24,102,114.335,102,193.115
								v125.773c0,78.777,69.092,142.889,154.019,142.889c84.875,0,153.958-64.111,153.958-142.889V193.115
								C409.976,114.335,340.894,50.24,256.018,50.24L256.018,50.24z"/>
						</g>
					</g>
				</g>
			</g>
		</g>
	</g>
</g>
</svg>
